<?xml version="1.0" encoding="UTF-8" standalone="no"?>
<svg
   xmlns:dc="http://purl.org/dc/elements/1.1/"
   xmlns:cc="http://creativecommons.org/ns#"
   xmlns:rdf="http://www.w3.org/1999/02/22-rdf-syntax-ns#"
   xmlns:svg="http://www.w3.org/2000/svg"
   xmlns="http://www.w3.org/2000/svg"
   xmlns:sodipodi="http://sodipodi.sourceforge.net/DTD/sodipodi-0.dtd"
   xmlns:inkscape="http://www.inkscape.org/namespaces/inkscape"
   width="91.44mm"
   height="91.44mm"
   version="1.1"
   style="shape-rendering:geometricPrecision; text-rendering:geometricPrecision; image-rendering:optimizeQuality; fill-rule:evenodd; clip-rule:evenodd"
   viewBox="0 0 9144 9144"
   id="svg13"
   sodipodi:docname="facebook-2935402.svg"
   inkscape:version="0.92.2 (unknown)">
  <metadata
     id="metadata17">
    <rdf:RDF>
      <cc:Work
         rdf:about="">
        <dc:format>image/svg+xml</dc:format>
        <dc:type
           rdf:resource="http://purl.org/dc/dcmitype/StillImage" />
      </cc:Work>
    </rdf:RDF>
  </metadata>
  <sodipodi:namedview
     pagecolor="#ffffff"
     bordercolor="#666666"
     borderopacity="1"
     objecttolerance="10"
     gridtolerance="10"
     guidetolerance="10"
     inkscape:pageopacity="0"
     inkscape:pageshadow="2"
     inkscape:window-width="1920"
     inkscape:window-height="1023"
     id="namedview15"
     showgrid="false"
     inkscape:zoom="0.68287035"
     inkscape:cx="432.00001"
     inkscape:cy="172.8"
     inkscape:window-x="0"
     inkscape:window-y="27"
     inkscape:window-maximized="1"
     inkscape:current-layer="svg13" />
  <defs
     id="defs4">
    <style
       type="text/css"
       id="style2">  .fil0 {fill:#F0F0F0} .fil1 {fill:#011627;fill-rule:nonzero}  </style>
  </defs>
  <g
     id="Layer_x0020_1">
    <metadata
       id="CorelCorpID_0Corel-Layer" />
    <g
       id="_2744503357600">
      <polygon
         class="fil0"
         points="0,0 9144,0 9144,9144 0,9144 "
         id="polygon7" />
      <path
         class="fil1"
         d="M4166 4115l-458 0 0 508 458 1c46,0 84,37 84,84l1 1812 507 0 0 -1812c0,-47 38,-85 85,-85l593 0 0 -508 -593 0c-47,0 -85,-38 -85,-85 0,-218 0,-377 14,-500 15,-137 48,-228 116,-291 2,-1 4,-3 6,-5 59,-52 137,-78 245,-90 80,-9 177,-11 297,-11l0 -508c-294,0 -520,2 -689,22 -170,21 -281,60 -350,136 -71,79 -107,203 -126,394 -21,203 -21,482 -21,853 0,47 -38,85 -84,85zm-542 -170l457 0c0,-331 2,-585 22,-784 23,-228 71,-383 169,-491 100,-111 243,-165 455,-191 196,-24 452,-24 793,-24 47,0 85,38 85,85l0 677c0,47 -38,85 -85,85 -156,0 -276,0 -363,10 -72,8 -121,22 -151,48l-3 3c-35,32 -53,90 -63,186 -11,95 -12,225 -12,396l592 0c47,0 85,38 85,85l0 678c0,46 -38,84 -85,84l-592 0 0 1812 -1 0c0,47 -38,85 -84,85l-677 -1c-46,0 -84,-37 -84,-84l-1 -1812 -457 0c-47,0 -85,-38 -85,-84l0 -678c0,-47 38,-85 85,-85z"
         id="path9" />
    </g>
  </g>
  <path
     inkscape:connector-curvature="0"
     style="fill:#021923;stroke-width:12.43413448"
     d="m 5459.444,2637.2924 c 0,0 -169.972,184.6493 -668.169,184.6493 -486.474,0 -668.169,-184.6493 -668.169,-184.6493 v -657.0086 h 1336.338 z"
     id="path2" />
  <path
     inkscape:connector-curvature="0"
     d="m 4788.345,2848.3202 c -489.862,0 -674.734,-183.6338 -682.424,-191.455 l -6.259,-7.8476 V 1953.9053 H 5482.889 V 2648.49 l -8.616,7.7817 c -7.233,7.8344 -184.039,192.0485 -685.928,192.0485 z m -641.794,-223.7423 c 35.167,32.6962 228.713,170.9853 644.724,170.9853 425.906,0 609.558,-138.0913 644.725,-170.5632 V 2006.6622 H 4146.551 Z"
     id="path4"
     style="stroke-width:12.43413448" />
  <polyline
     transform="matrix(11.722265,0,0,13.189236,3290.825,569.08831)"
     style="fill:#edc10c"
     points="165 125 165 177.48 168.5 172.81 172 175.81 172 123"
     id="polyline6" />
  <polygon
     transform="matrix(11.722265,0,0,13.189236,3290.825,569.08831)"
     points="174,123 174,180.16 168.82,175.72 163,183.48 163,125 167,125 167,171.48 168.18,169.91 170,171.46 170,123 "
     id="polygon8" />
  <polygon
     transform="matrix(11.722265,0,0,13.189236,3290.825,569.08831)"
     style="fill:#093449"
     points="218,106.64 128,138.64 38,106.64 128,74.642 "
     id="polygon10" />
  <path
     inkscape:connector-curvature="0"
     d="M 4791.275,2425.6711 3666.29,1975.6148 4791.275,1525.5717 5916.261,1975.628 Z m -985.022,-450.0563 985.022,394.068 985.022,-394.0548 -985.022,-394.068 z"
     id="path12"
     style="stroke-width:12.43413448" />
</svg>
